<svg width="800" height="800" viewBox="0 0 800 800" fill="none" xmlns="http://www.w3.org/2000/svg">
<rect width="800" height="800" rx="80" fill="#C8EE44"/>
<path d="M140.125 346.52H194.077V363.288H159.197V380.504H193.757V396.76H159.197V414.232H194.077V431H140.125V346.52ZM258.42 385.56L290.164 431H265.204L245.684 401.496L226.804 431H203.764L233.716 385.56L206.516 346.52H230.836L246.452 370.84L261.876 346.52H285.172L258.42 385.56ZM299.003 346.52H329.722C335.141 346.52 340.027 347.48 344.379 349.4C348.731 351.277 352.187 354.157 354.747 358.04C357.349 361.88 358.651 366.701 358.651 372.504C358.651 378.264 357.349 383.171 354.747 387.224C352.187 391.235 348.731 394.307 344.379 396.44C340.027 398.531 335.141 399.576 329.722 399.576H318.139V431H299.003V346.52ZM318.139 384.472H324.411C327.013 384.472 329.339 384.088 331.387 383.32C333.477 382.552 335.141 381.336 336.379 379.672C337.616 377.965 338.235 375.725 338.235 372.952C338.235 370.136 337.616 367.917 336.379 366.296C335.141 364.632 333.477 363.437 331.387 362.712C329.339 361.987 327.013 361.624 324.411 361.624H318.139V384.472ZM369.625 346.52H423.577V363.288H388.697V380.504H423.257V396.76H388.697V414.232H423.577V431H369.625V346.52ZM455.728 364.056L457.136 364.312V431H438V346.52H464.112L498.352 413.08L496.944 413.336V346.52H516.08V431H489.84L455.728 364.056ZM561.284 344.984C566.532 344.984 571.118 345.56 575.044 346.712C578.969 347.864 582.126 349.08 584.516 350.36C586.905 351.64 588.356 352.493 588.868 352.92L579.652 368.344C578.969 367.832 577.796 367.085 576.132 366.104C574.51 365.123 572.569 364.248 570.308 363.48C568.089 362.712 565.764 362.328 563.332 362.328C560.046 362.328 557.38 362.925 555.332 364.12C553.326 365.272 552.324 367 552.324 369.304C552.324 370.883 552.857 372.312 553.924 373.592C555.033 374.829 556.697 376.024 558.916 377.176C561.177 378.285 564.036 379.501 567.492 380.824C570.649 381.976 573.614 383.341 576.388 384.92C579.161 386.499 581.593 388.376 583.684 390.552C585.817 392.685 587.502 395.16 588.74 397.976C589.977 400.792 590.596 403.992 590.596 407.576C590.596 411.843 589.721 415.555 587.972 418.712C586.222 421.827 583.833 424.408 580.804 426.456C577.817 428.504 574.404 430.019 570.564 431C566.766 432.024 562.82 432.536 558.724 432.536C552.921 432.536 547.716 431.875 543.108 430.552C538.542 429.229 534.852 427.8 532.036 426.264C529.22 424.728 527.534 423.704 526.98 423.192L536.516 407.128C537.028 407.512 538.009 408.131 539.46 408.984C540.953 409.837 542.766 410.733 544.9 411.672C547.033 412.568 549.294 413.336 551.684 413.976C554.116 414.616 556.505 414.936 558.852 414.936C562.777 414.936 565.721 414.189 567.684 412.696C569.646 411.16 570.628 409.155 570.628 406.68C570.628 404.845 570.009 403.203 568.772 401.752C567.534 400.301 565.678 398.936 563.204 397.656C560.729 396.333 557.636 394.947 553.924 393.496C550.212 392.003 546.734 390.189 543.492 388.056C540.292 385.923 537.689 383.256 535.684 380.056C533.678 376.856 532.676 372.888 532.676 368.152C532.676 363.416 533.998 359.32 536.644 355.864C539.332 352.365 542.852 349.677 547.204 347.8C551.598 345.923 556.292 344.984 561.284 344.984ZM602.125 346.52H656.077V363.288H621.197V380.504H655.757V396.76H621.197V414.232H656.077V431H602.125V346.52Z" fill="black"/>
<path d="M301.515 510.84H295.315V535H291.355V510.84H285.195V507.36H301.515V510.84ZM335.163 535H331.203L331.283 532.2L323.363 524.24L326.043 521.16H331.203V510.84H321.843V535H317.883V514.24L321.363 510.84H317.403V507.36H331.683L335.163 510.84V520.68L331.683 524.16H328.443V524.68L335.163 531.32V535ZM371.423 535H367.503V524.64H358.103V535H354.143V510.84L357.623 507.36H371.423V535ZM369.983 510.84H358.103V524.16L361.103 521.16H367.503V513.32L369.983 510.84ZM408.065 531.52L404.585 535H394.705L391.265 531.52V510.84L394.705 507.36H404.585L408.065 510.84V513.72L404.105 517.72V510.84H395.225V531.52H404.105V528.6L408.065 524.64V531.52ZM443.652 535H439.692V521.16H430.332V535H426.372V507.36H430.332V520.52L439.212 511.84V507.36H443.172L443.132 512.24L437.652 517.56V518.08H440.172L443.652 521.52V535ZM477.298 535H463.498V514.24L466.978 510.84H463.018V507.36H477.298V510.84H467.458V520.68L470.378 517.72H477.298V521.16H467.458V531.52H477.298V535ZM512.905 535H508.945L509.025 532.2L501.105 524.24L503.785 521.16H508.945V510.84H499.585V535H495.625V514.24L499.105 510.84H495.145V507.36H509.425L512.905 510.84V520.68L509.425 524.16H506.185V524.68L512.905 531.32V535Z" fill="#29A073"/>
</svg>
